<?xml version="1.0" standalone="no"?>
<!DOCTYPE svg PUBLIC "-//W3C//DTD SVG 20010904//EN"
 "http://www.w3.org/TR/2001/REC-SVG-20010904/DTD/svg10.dtd">
<svg version="1.0" xmlns="http://www.w3.org/2000/svg"
 width="512.000000pt" height="512.000000pt" viewBox="0 0 512.000000 512.000000"
 preserveAspectRatio="xMidYMid meet">

<g transform="translate(0.000000,512.000000) scale(0.100000,-0.100000)"
fill="#000000" stroke="none">
<path d="M3688 3903 c-63 -65 -122 -130 -132 -145 -39 -60 5 -114 208 -258 84
-60 207 -225 210 -283 1 -29 -2 -32 -39 -39 -22 -4 -65 -7 -96 -7 -133 -2
-453 -79 -644 -155 -284 -114 -513 -287 -650 -492 -30 -45 -66 -107 -81 -137
-17 -36 -41 -68 -69 -89 -24 -18 -58 -55 -76 -81 -30 -44 -33 -56 -37 -135 -3
-92 15 -154 48 -160 14 -2 15 8 12 63 -6 83 15 141 68 189 42 38 90 52 144 42
46 -9 80 -38 105 -89 55 -113 -3 -228 -154 -305 -81 -42 -166 -62 -299 -71
-95 -6 -118 -11 -158 -35 -53 -31 -352 -336 -341 -347 5 -4 399 -10 876 -13
961 -7 888 -12 867 61 -6 21 -13 97 -16 168 -10 229 37 411 148 573 94 138
246 288 285 280 16 -3 47 -67 107 -223 21 -54 36 -88 112 -260 12 -27 24 -59
28 -70 22 -74 87 -202 110 -220 25 -18 29 -18 54 -5 38 22 49 82 62 360 7 129
16 248 22 263 6 16 22 36 35 44 30 20 76 8 166 -42 258 -143 343 -457 208
-769 -36 -82 -134 -198 -218 -259 -183 -132 -384 -150 -575 -51 -85 44 -174
161 -213 280 -20 62 -25 96 -25 183 0 94 4 117 33 201 19 56 52 125 81 168
l49 73 -34 75 c-24 51 -39 73 -50 71 -30 -4 -125 -125 -172 -218 -47 -95 -90
-239 -101 -339 -7 -59 13 -200 41 -285 25 -80 79 -182 123 -233 22 -27 40 -54
40 -60 0 -8 -24 -12 -77 -12 -43 0 -130 -4 -193 -10 -63 -5 -223 -12 -355 -15
-132 -3 -251 -8 -265 -11 -14 -2 -165 -9 -335 -15 -492 -18 -613 -24 -620 -31
-14 -13 381 -34 950 -49 1286 -33 1480 -33 1565 -2 276 101 468 299 554 569
39 124 49 193 44 316 -4 93 -10 128 -36 202 -64 182 -185 331 -325 400 -85 41
-106 43 -217 13 -76 -20 -113 -40 -148 -82 -42 -52 -54 -103 -59 -255 -3 -74
-8 -139 -12 -143 -12 -12 -29 14 -57 89 -78 211 -129 336 -159 393 -9 18 -14
39 -11 47 5 14 103 63 181 91 115 41 240 64 380 70 l143 6 6 38 c13 79 -41
273 -120 432 -101 204 -205 354 -366 522 -140 147 -365 335 -400 335 -8 0 -66
-53 -130 -117z m217 -93 c33 -27 62 -50 65 -50 11 0 206 -202 266 -275 81 -99
177 -250 235 -368 53 -107 104 -259 96 -281 -4 -9 -42 -18 -109 -26 -124 -15
-259 -44 -313 -69 -257 -117 -359 -179 -483 -296 -125 -118 -224 -265 -277
-410 -10 -27 -22 -54 -25 -60 -18 -27 -33 -125 -40 -274 -4 -91 -6 -171 -3
-178 3 -7 0 -20 -7 -28 -12 -15 -124 -15 -1212 -6 -73 1 -98 4 -98 14 0 15 75
90 108 106 12 7 77 16 145 20 200 15 342 75 450 190 69 73 91 130 91 227 0 72
-4 90 -33 148 -26 53 -43 74 -89 106 -71 49 -82 59 -82 69 0 5 19 37 42 72 49
76 207 233 291 290 78 54 284 159 367 188 36 13 74 27 85 31 90 36 301 76 497
94 161 16 199 29 219 78 16 39 6 142 -20 200 -44 96 -168 232 -301 329 -41 30
-70 58 -70 68 0 19 117 141 135 141 6 0 37 -22 70 -50z"/>
<path d="M2470 3830 c-58 -5 -213 -14 -345 -20 -517 -25 -596 -29 -607 -36
-25 -16 30 -23 248 -34 126 -5 245 -13 264 -16 19 -2 150 -9 290 -15 140 -6
288 -13 328 -15 71 -6 75 -5 185 46 157 72 162 75 160 85 -4 12 -378 15 -523
5z"/>
<path d="M2785 3575 c-127 -32 -269 -103 -345 -170 -77 -70 -116 -118 -176
-219 l-47 -78 -96 6 c-354 24 -448 51 -542 152 -141 152 -164 171 -224 194
-58 23 -72 24 -428 28 -202 2 -374 1 -383 -2 -10 -4 -12 -11 -7 -20 11 -19 87
-82 182 -150 121 -87 120 -88 -144 -107 -246 -18 -405 -38 -405 -50 0 -4 24
-10 53 -13 205 -20 395 -37 472 -41 152 -9 309 -27 330 -38 47 -24 226 -177
220 -187 -9 -14 -97 -22 -344 -31 -693 -26 -901 -40 -901 -60 0 -12 -15 -11
185 -19 344 -15 611 -30 705 -40 52 -5 145 -10 205 -11 61 -1 169 -6 240 -12
l130 -10 100 -85 c163 -137 245 -214 245 -229 0 -8 -22 -24 -50 -37 -27 -13
-55 -28 -62 -33 -7 -6 -42 -23 -77 -37 -72 -29 -82 -27 -125 31 -65 86 -207
173 -342 208 -161 42 -382 -2 -542 -109 -125 -83 -229 -213 -295 -368 -90
-211 -90 -467 0 -663 48 -102 61 -121 158 -220 65 -66 97 -90 165 -123 197
-95 397 -96 594 -3 247 117 417 360 458 656 l13 90 118 39 c75 25 117 44 117
52 0 17 -47 94 -58 94 -4 0 -52 -14 -107 -30 -55 -17 -145 -44 -200 -61 -55
-17 -201 -64 -325 -106 -124 -41 -247 -77 -273 -80 -59 -6 -87 14 -87 63 0 53
38 87 143 129 50 20 130 55 177 77 194 92 236 111 467 218 265 123 254 121
310 57 30 -34 30 -37 30 -144 0 -124 15 -201 50 -256 17 -28 30 -37 45 -35 20
3 21 8 23 198 3 250 22 324 127 510 79 140 261 311 491 460 95 63 89 76 -19
41 -122 -39 -322 -156 -424 -248 -26 -24 -54 -43 -62 -43 -17 0 -202 65 -309
109 -206 83 -296 113 -304 101 -5 -8 19 -28 125 -108 14 -10 48 -30 75 -44 28
-14 82 -44 120 -67 39 -22 98 -55 132 -73 69 -35 81 -52 58 -78 -9 -10 -31
-53 -50 -95 -18 -43 -39 -83 -47 -90 -11 -11 -49 20 -211 170 -108 101 -234
214 -280 252 -45 37 -91 77 -102 88 -36 37 -383 325 -529 438 -52 41 -31 47
154 47 104 0 188 -5 217 -12 51 -14 69 -30 199 -174 65 -72 78 -82 155 -112
65 -26 118 -38 234 -52 160 -20 378 -37 395 -32 6 2 28 39 49 82 71 144 153
234 283 313 158 95 413 122 633 67 93 -24 170 -59 170 -79 0 -7 -38 -29 -87
-50 -48 -20 -97 -44 -108 -53 -23 -20 -27 -77 -8 -96 23 -23 87 -13 173 28 32
16 195 81 260 104 74 27 111 51 118 76 15 59 -32 84 -126 68 -54 -10 -59 -9
-105 20 -65 42 -213 98 -321 122 -128 28 -304 26 -426 -5z m-1593 -1283 c89
-43 176 -111 165 -129 -8 -12 -114 -65 -187 -94 -128 -49 -299 -134 -329 -162
-44 -42 -71 -101 -71 -158 0 -89 33 -147 105 -180 52 -24 108 -24 175 2 30 11
75 26 100 34 25 8 111 35 193 60 81 25 152 43 158 39 27 -16 -29 -192 -88
-277 -143 -207 -376 -314 -573 -262 -95 25 -157 57 -224 117 -73 64 -116 131
-149 228 -41 117 -50 204 -32 292 22 106 43 165 82 233 84 144 178 222 343
282 55 20 79 23 157 20 83 -4 100 -8 175 -45z"/>
<path d="M2240 3544 c-19 -2 -66 -8 -105 -14 -38 -5 -123 -15 -187 -21 -64 -7
-123 -16 -130 -21 -31 -20 15 -28 309 -59 l112 -11 60 53 c34 29 60 58 58 64
-4 11 -58 15 -117 9z"/>
</g>
</svg>
